<svg width="200" height="200" viewBox="0 0 200 200" fill="none" xmlns="http://www.w3.org/2000/svg">
<path d="M127.188 100.5C134.058 100.498 140.742 98.263 146.231 94.132C151.721 90.001 155.719 84.1977 157.624 77.5966C159.528 70.9955 159.236 63.9543 156.79 57.5338C154.345 51.1134 149.879 45.6617 144.066 42.0002C138.252 38.3386 131.407 36.6657 124.56 37.2334C117.713 37.8011 111.236 40.5787 106.105 45.1477C100.974 49.7166 97.4672 55.8294 96.1126 62.5649C94.758 69.3004 95.6292 76.2937 98.5949 82.491L73.8787 94.8491C69.5036 91.7275 64.2801 90.0153 58.906 89.9411C53.532 89.867 48.2632 91.4345 43.8037 94.4342C39.3441 97.4339 35.906 101.723 33.9488 106.728C31.9915 111.734 31.6082 117.218 32.8501 122.447C34.0921 127.676 36.9 132.401 40.8989 135.992C44.8979 139.583 49.8973 141.868 55.2294 142.543C60.5615 143.217 65.9724 142.248 70.7392 139.765C75.5061 137.283 79.4019 133.405 81.9062 128.649L106.158 140.775C105.678 145.891 107.079 151.007 110.099 155.164C113.12 159.322 117.552 162.236 122.566 163.361C127.58 164.486 132.832 163.744 137.339 161.275C141.846 158.807 145.299 154.78 147.05 149.949C148.802 145.118 148.732 139.814 146.855 135.03C144.978 130.247 141.421 126.312 136.851 123.962C132.281 121.611 127.012 121.008 122.029 122.263C117.046 123.519 112.691 126.548 109.781 130.783L84.8637 118.319C85.278 112.948 84.0317 107.579 81.2936 102.94L104.774 91.2156C107.714 94.1642 111.207 96.5025 115.054 98.0958C118.9 99.6892 123.024 100.506 127.188 100.5Z" fill="#9C9C9C" fill-opacity="0.9"/>
<circle cx="100" cy="100" r="97.5" stroke="#9C9C9C" stroke-opacity="0.9" stroke-width="5"/>
</svg>
