<svg width="200" height="200" viewBox="0 0 200 200" fill="none" xmlns="http://www.w3.org/2000/svg">
<path d="M125.125 100C130.573 99.9984 135.872 98.2263 140.225 94.9508C144.577 91.6754 147.748 87.0739 149.258 81.8399C150.768 76.6059 150.536 71.0229 148.597 65.9322C146.658 60.8414 143.117 56.5187 138.508 53.6155C133.898 50.7123 128.47 49.3858 123.041 49.8359C117.613 50.2861 112.477 52.4884 108.409 56.1112C104.34 59.7339 101.56 64.5807 100.486 69.9213C99.4117 75.2619 100.102 80.8068 102.454 85.7206L82.8564 95.5194C79.3874 93.0443 75.2457 91.6867 70.9846 91.6279C66.7236 91.5691 62.546 92.8119 59.01 95.1904C55.474 97.5689 52.748 100.97 51.1961 104.939C49.6441 108.907 49.3402 113.255 50.3249 117.401C51.3097 121.548 53.5361 125.295 56.7068 128.142C59.8776 130.989 63.8416 132.801 68.0695 133.336C72.2973 133.87 76.5876 133.102 80.3672 131.133C84.1468 129.165 87.2358 126.09 89.2214 122.319L108.45 131.934C108.07 135.991 109.181 140.047 111.576 143.343C113.971 146.64 117.485 148.95 121.461 149.842C125.436 150.734 129.601 150.146 133.174 148.189C136.748 146.231 139.485 143.038 140.874 139.208C142.263 135.377 142.208 131.172 140.719 127.379C139.231 123.586 136.411 120.466 132.787 118.603C129.164 116.739 124.986 116.261 121.035 117.256C117.084 118.252 113.631 120.653 111.323 124.011L91.5664 114.129C91.895 109.87 90.9068 105.613 88.7357 101.935L107.353 92.6384C109.684 94.9763 112.454 96.8303 115.504 98.0937C118.554 99.3571 121.824 100.005 125.125 100Z" fill="white" fill-opacity="0.9"/>
<circle cx="100" cy="100" r="97.5" stroke="white" stroke-opacity="0.9" stroke-width="5"/>
</svg>
