<?xml version="1.0" standalone="no"?>
<!DOCTYPE svg PUBLIC "-//W3C//DTD SVG 20010904//EN"
 "http://www.w3.org/TR/2001/REC-SVG-20010904/DTD/svg10.dtd">
<svg version="1.0" xmlns="http://www.w3.org/2000/svg"
 width="840.000000pt" height="840.000000pt" viewBox="0 0 840.000000 840.000000"
 preserveAspectRatio="xMidYMid meet">
<metadata>
Created by potrace 1.14, written by Peter Selinger 2001-2017
</metadata>
<g transform="translate(0.000000,840.000000) scale(0.100000,-0.100000)"
fill="#000000" stroke="none">
<path d="M6179 8376 c-2 -3 -33 -7 -69 -10 -36 -3 -65 -6 -65 -6 0 -1 -13 -3
-30 -5 -16 -2 -59 -10 -95 -18 -35 -9 -68 -13 -72 -11 -5 3 -8 1 -8 -3 0 -5
-9 -9 -20 -10 -65 -5 -424 -150 -474 -192 -7 -6 -16 -8 -19 -4 -4 3 -7 1 -7
-5 0 -7 -5 -12 -10 -12 -22 0 -244 -158 -310 -220 -15 -14 -52 -49 -83 -77
-32 -29 -57 -57 -57 -62 0 -5 -7 -11 -15 -15 -8 -3 -24 -20 -35 -38 -11 -18
-20 -29 -20 -25 0 19 -143 -178 -210 -288 -74 -124 -195 -421 -214 -531 -3
-16 -10 -44 -15 -62 -5 -18 -10 -33 -9 -35 0 -3 -14 -100 -19 -122 -14 -72
-20 -341 -9 -445 10 -98 18 -156 22 -169 3 -8 7 -30 10 -50 3 -20 12 -61 20
-91 9 -30 17 -62 19 -70 17 -75 128 -348 160 -394 12 -16 12 -21 0 -32 -7 -8
-17 -14 -22 -15 -4 0 -235 -114 -513 -253 -278 -140 -686 -344 -908 -455
l-403 -202 -47 33 c-26 18 -49 35 -52 38 -7 8 -153 95 -160 95 -3 1 -33 15
-67 33 -35 18 -63 29 -63 26 0 -4 -6 -1 -14 5 -16 13 -192 71 -217 71 -9 0
-19 3 -23 7 -3 4 -14 8 -22 9 -9 1 -46 7 -82 13 -37 6 -81 12 -99 15 -17 2
-37 7 -42 11 -6 3 -11 2 -11 -3 0 -6 -14 -7 -32 -3 -27 5 -213 7 -213 1 0 0
-29 -3 -64 -5 -36 -3 -72 -7 -80 -10 -9 -2 -34 -7 -56 -10 -69 -11 -246 -65
-335 -102 -464 -197 -821 -598 -951 -1068 -12 -44 -24 -87 -27 -95 -5 -15 -7
-25 -17 -85 -15 -90 -20 -154 -20 -290 1 -82 4 -172 8 -200 4 -27 9 -66 12
-85 6 -46 10 -63 30 -135 9 -33 18 -67 20 -75 1 -8 19 -56 39 -105 20 -50 38
-94 39 -100 1 -5 4 -12 7 -15 3 -3 21 -34 39 -70 37 -72 130 -213 143 -218 4
-2 8 -7 8 -12 0 -11 60 -79 150 -170 118 -119 254 -217 411 -297 52 -26 96
-48 99 -49 3 0 19 -6 35 -13 51 -20 142 -51 148 -50 1 0 14 -4 28 -9 14 -6 43
-13 63 -16 21 -4 41 -8 45 -11 4 -2 30 -7 57 -10 27 -4 69 -11 94 -15 56 -10
332 -10 379 1 20 4 56 10 81 13 25 2 45 5 45 6 0 1 11 4 25 6 47 9 55 11 100
23 48 13 122 38 155 52 11 4 45 18 75 31 30 12 77 35 103 50 26 15 50 28 53
28 7 0 175 113 205 137 102 84 226 209 284 288 17 22 36 46 43 53 6 7 12 17
12 22 0 5 6 15 14 22 8 8 29 41 47 74 18 32 37 62 42 65 5 3 8 9 8 13 -2 12
51 116 58 112 8 -4 601 -297 756 -373 66 -32 127 -63 135 -68 8 -5 17 -10 20
-10 3 -1 75 -36 161 -78 86 -42 161 -77 167 -77 6 0 12 -3 14 -7 4 -9 495
-253 509 -253 5 0 9 -5 9 -12 0 -6 3 -8 6 -5 10 9 65 -33 58 -44 -15 -25 -22
-243 -10 -334 3 -22 7 -58 10 -80 3 -22 7 -49 10 -60 3 -11 10 -38 16 -60 6
-22 12 -44 13 -50 8 -32 75 -187 99 -228 15 -26 28 -50 28 -52 0 -31 274 -345
301 -345 4 0 16 -8 26 -18 29 -30 152 -106 233 -145 70 -33 204 -81 260 -92
128 -27 181 -32 301 -33 75 0 157 4 181 8 24 5 59 11 78 14 19 3 67 15 105 26
39 12 77 22 85 23 8 1 18 6 21 10 3 5 12 10 20 11 20 4 51 16 69 26 8 5 48 25
88 46 40 21 80 46 89 56 9 10 22 18 29 18 7 0 17 6 21 13 4 7 20 20 34 29 50
32 195 185 250 263 69 98 112 177 151 275 31 77 58 160 53 160 -2 0 3 21 11
46 7 25 13 49 13 52 -1 4 -1 9 1 12 7 21 12 84 13 195 1 130 -3 172 -29 310
-8 44 -65 208 -76 222 -6 7 -8 13 -5 13 6 0 -91 182 -102 190 -3 3 -18 23 -32
45 -29 44 -127 154 -173 194 -16 14 -37 33 -46 41 -42 40 -122 95 -152 106
-10 3 -18 10 -18 14 0 7 -192 101 -214 104 -6 1 -15 4 -21 7 -5 3 -30 11 -55
18 -25 8 -52 16 -60 19 -8 2 -26 6 -39 8 -13 2 -27 8 -30 13 -7 11 -4 1702 3
1708 2 2 14 6 27 8 13 3 35 7 49 10 14 2 41 7 60 10 19 3 42 8 50 10 8 2 26 6
40 9 58 10 292 91 352 122 15 8 29 13 30 12 4 -3 111 55 126 70 7 7 17 10 21
7 5 -2 17 4 27 13 10 10 38 29 62 42 23 13 42 27 42 32 0 4 5 8 11 8 10 0 50
29 148 108 115 93 289 285 376 417 22 33 45 65 51 72 23 24 153 299 184 388
32 91 75 251 84 315 37 253 40 464 9 655 -3 22 -7 49 -9 60 -7 47 -27 131 -59
245 -23 83 -117 297 -173 395 -29 51 -66 110 -71 115 -4 3 -10 12 -16 21 -25
41 -64 96 -81 115 -11 12 -39 46 -64 75 -140 166 -364 345 -572 457 -140 75
-407 179 -423 164 -3 -3 -5 -1 -5 4 0 5 -8 10 -17 11 -17 1 -30 3 -120 24
-101 22 -199 31 -369 35 -99 2 -183 2 -185 0z m-1120 -3588 c114 -91 352 -243
396 -252 6 -1 33 -13 60 -25 28 -13 59 -27 70 -32 41 -18 203 -69 270 -85 70
-16 79 -18 145 -28 19 -3 55 -9 80 -14 l45 -7 -2 -618 c0 -339 -3 -624 -7
-632 -3 -8 -2 -15 2 -15 8 0 7 -84 -2 -99 -4 -5 -2 -12 4 -16 6 -4 8 -10 6
-14 -6 -10 -8 -109 -3 -143 2 -16 0 -28 -5 -28 -5 0 -7 -4 -4 -9 12 -19 6
-130 -6 -132 -8 -2 -105 -25 -153 -38 -16 -4 -66 -22 -110 -40 -259 -103 -470
-284 -641 -549 -1 -2 -35 14 -75 34 -41 21 -76 39 -79 39 -3 1 -207 102 -455
225 -247 123 -452 225 -455 225 -17 5 -76 35 -83 42 -5 4 -12 8 -15 9 -4 0
-167 79 -362 176 l-356 175 6 68 c15 183 -5 392 -56 580 -3 11 -7 27 -9 35 -2
8 -4 15 -5 15 -1 0 -3 7 -5 15 -16 71 -108 267 -176 376 -23 36 -38 68 -34 72
3 4 407 208 898 453 l891 446 75 -75 c42 -41 109 -102 150 -134z"/>
</g>
</svg>
